<svg xmlns="http://www.w3.org/2000/svg" enable-background="new 0 0 512 512" height="512" viewBox="0 0 512 512" width="512">
    <g>
        <g>
            <path d="m393.517 348.555-8.404 70.375v5.68c0 5.689 4.612 10.302 10.302 10.302h65.753c5.69 0 10.302-4.612 10.302-10.302v-5.68l-12.94-70.375z" fill="#8d9ca8"/>
            <path d="m48.422 348.555-7.892 70.375v5.68c0 5.689 4.612 10.302 10.302 10.302h65.753c5.69 0 10.302-4.612 10.302-10.302v-5.68l-6.179-70.375z" fill="#8d9ca8"/>
            <path d="m40.53 348.555h86.357v70.375h-86.357z" fill="#7a8c98"/>
            <path d="m385.113 348.555h86.357v70.375h-86.357z" fill="#7a8c98"/>
            <g>
                <path d="m509.08 368.613v-261.65c0-16.5-13.376-29.875-29.875-29.875h-449.33c-16.499 0-29.875 13.376-29.875 29.876v261.65c0 16.5 13.376 29.875 29.875 29.875h449.329c16.5 0 29.876-13.376 29.876-29.876z" fill="#d8ecfe"/>
            </g>
            <path d="m509.08 368.613v-261.65c0-16.5-13.376-29.875-29.875-29.875h-449.33c-16.499 0-29.875 13.376-29.875 29.876v261.65c0 16.5 13.376 29.875 29.875 29.875h449.329c16.5 0 29.876-13.376 29.876-29.876z" fill="#eb5569"/>
            <path d="m482.125 77.088h-35.042c16.5 0 29.875 13.376 29.875 29.875v261.65c0 16.5-13.376 29.875-29.875 29.875h35.042c16.5 0 29.875-13.375 29.875-29.875v-261.65c0-16.499-13.376-29.875-29.875-29.875z" fill="#e53950"/>
            <g>
                <path d="m471.823 118.986h-424.435l-12.362 13.57v218.544c0 6.827 5.535 12.362 12.362 12.362h399.188l25.247-12.171z" fill="#f8a5af"/>
            </g>
            <path d="m464.612 112.114h-417.224c-6.827 0-12.362 5.535-12.362 12.362v8.079h399.188c6.827 0 12.362 5.535 12.362 12.362v218.545h18.036c6.827 0 12.362-5.535 12.362-12.362v-226.623c0-6.828-5.535-12.363-12.362-12.363z" fill="#f58a97"/>
            
            <g id="digits">
                <!-- {{digits}} -->
            </g>
            
            <g id="dotts" fill="#e8edf2">
                <circle cx="256" cy="225.77" r="9.272"/>
                <circle cx="256" cy="263.732" r="9.272"/>
            </g>
        </g>
    </g>
</svg>
